<svg xmlns="http://www.w3.org/2000/svg" viewBox="0 0 512 512">
  <defs>
    <linearGradient id="grad" x1="0%" y1="0%" x2="100%" y2="100%">
      <stop offset="0%" style="stop-color:#7c3aed;stop-opacity:1" />
      <stop offset="100%" style="stop-color:#2563eb;stop-opacity:1" />
    </linearGradient>
  </defs>
  <rect width="512" height="512" rx="96" fill="url(#grad)"/>
  <g transform="translate(256, 220) scale(1.6)">
    <path d="M-80 -40 L0 -60 L80 -40 L80 60 L0 80 L-80 60 Z" fill="rgba(255,255,255,0.9)" stroke="white" stroke-width="3"/>
    <path d="M0 -60 L0 80" stroke="rgba(0,0,0,0.1)" stroke-width="2"/>
    <line x1="-50" y1="-20" x2="-15" y2="-28" stroke="#7c3aed" stroke-width="4" stroke-linecap="round"/>
    <line x1="15" y1="-28" x2="50" y2="-20" stroke="#7c3aed" stroke-width="4" stroke-linecap="round"/>
    <line x1="-50" y1="0" x2="-15" y2="-8" stroke="#2563eb" stroke-width="4" stroke-linecap="round"/>
    <line x1="15" y1="-8" x2="50" y2="0" stroke="#2563eb" stroke-width="4" stroke-linecap="round"/>
    <line x1="-50" y1="20" x2="-15" y2="12" stroke="#2563eb" stroke-width="4" stroke-linecap="round"/>
    <line x1="15" y1="12" x2="50" y2="20" stroke="#2563eb" stroke-width="4" stroke-linecap="round"/>
  </g>
  <g transform="translate(320, 320) scale(1.2)">
    <polygon points="0,-40 20,-5 -5,-5 10,40 -20,0 5,0 -5,-40" fill="rgba(255,255,100,0.9)" stroke="#fbbf24" stroke-width="2"/>
  </g>
</svg>
